<svg id="Layer_1" data-name="Layer 1" xmlns="http://www.w3.org/2000/svg" xmlns:xlink="http://www.w3.org/1999/xlink" viewBox="0 0 160 160"><defs><style>.cls-1{fill:#efefef;}.cls-2{fill:#ddd;}.cls-3{fill:url(#New_Gradient_Swatch_4);}.cls-4{fill:url(#New_Gradient_Swatch_1);}.cls-5{fill:url(#New_Gradient_Swatch_1-2);}.cls-6{fill:url(#New_Gradient_Swatch_1-3);}.cls-7{fill:url(#New_Gradient_Swatch_1-4);}.cls-8{fill:url(#New_Gradient_Swatch_4-2);}.cls-9{fill:url(#New_Gradient_Swatch_4-3);}.cls-10{fill:url(#New_Gradient_Swatch_4-4);}.cls-11{fill:url(#New_Gradient_Swatch_4-5);}.cls-12{fill:url(#New_Gradient_Swatch_4-6);}.cls-13{fill:url(#New_Gradient_Swatch_1-5);}.cls-14{fill:url(#New_Gradient_Swatch_1-6);}.cls-15{fill:url(#New_Gradient_Swatch_1-7);}.cls-16{fill:url(#New_Gradient_Swatch_4-7);}.cls-17{fill:url(#New_Gradient_Swatch_4-8);}.cls-18{fill:url(#New_Gradient_Swatch_4-9);}.cls-19{fill:url(#New_Gradient_Swatch_1-8);}.cls-20{fill:url(#New_Gradient_Swatch_1-9);}.cls-21{fill:url(#New_Gradient_Swatch_1-10);}.cls-22{fill:url(#New_Gradient_Swatch_1-11);}.cls-23{fill:url(#New_Gradient_Swatch_1-12);}.cls-24{fill:url(#New_Gradient_Swatch_4-10);}.cls-25{fill:url(#New_Gradient_Swatch_4-11);}.cls-26{fill:url(#New_Gradient_Swatch_4-12);}</style><linearGradient id="New_Gradient_Swatch_4" x1="28.67" y1="69.21" x2="98.43" y2="69.21" gradientUnits="userSpaceOnUse"><stop offset="0" stop-color="#464ade"/><stop offset="1" stop-color="#3e18d5"/></linearGradient><linearGradient id="New_Gradient_Swatch_1" x1="49.14" y1="83.78" x2="118.9" y2="83.78" gradientUnits="userSpaceOnUse"><stop offset="0" stop-color="#58b9f3"/><stop offset="1" stop-color="#479cd2"/></linearGradient><linearGradient id="New_Gradient_Swatch_1-2" x1="96.34" y1="14.16" x2="74.42" y2="14.16" xlink:href="#New_Gradient_Swatch_1"/><linearGradient id="New_Gradient_Swatch_1-3" x1="92.76" y1="24.22" x2="72.97" y2="24.22" xlink:href="#New_Gradient_Swatch_1"/><linearGradient id="New_Gradient_Swatch_1-4" x1="89.18" y1="35.07" x2="75.79" y2="35.07" xlink:href="#New_Gradient_Swatch_1"/><linearGradient id="New_Gradient_Swatch_4-2" x1="82.02" y1="54.05" x2="66.69" y2="54.05" xlink:href="#New_Gradient_Swatch_4"/><linearGradient id="New_Gradient_Swatch_4-3" x1="78.45" y1="62.74" x2="57.84" y2="62.74" xlink:href="#New_Gradient_Swatch_4"/><linearGradient id="New_Gradient_Swatch_4-4" x1="74.87" y1="72.16" x2="52.95" y2="72.16" xlink:href="#New_Gradient_Swatch_4"/><linearGradient id="New_Gradient_Swatch_4-5" x1="71.29" y1="81.83" x2="49.37" y2="81.83" xlink:href="#New_Gradient_Swatch_4"/><linearGradient id="New_Gradient_Swatch_4-6" x1="67.71" y1="92.5" x2="51.24" y2="92.5" xlink:href="#New_Gradient_Swatch_4"/><linearGradient id="New_Gradient_Swatch_1-5" x1="60.02" y1="114.24" x2="48.67" y2="114.24" xlink:href="#New_Gradient_Swatch_1"/><linearGradient id="New_Gradient_Swatch_1-6" x1="56.44" y1="122.46" x2="37.26" y2="122.46" xlink:href="#New_Gradient_Swatch_1"/><linearGradient id="New_Gradient_Swatch_1-7" x1="52.86" y1="131.62" x2="30.94" y2="131.62" xlink:href="#New_Gradient_Swatch_1"/><linearGradient id="New_Gradient_Swatch_4-7" x1="95.26" y1="21.49" x2="116.62" y2="21.49" xlink:href="#New_Gradient_Swatch_4"/><linearGradient id="New_Gradient_Swatch_4-8" x1="91.68" y1="30.76" x2="110.92" y2="30.76" xlink:href="#New_Gradient_Swatch_4"/><linearGradient id="New_Gradient_Swatch_4-9" x1="88.1" y1="39.25" x2="100.94" y2="39.25" xlink:href="#New_Gradient_Swatch_4"/><linearGradient id="New_Gradient_Swatch_1-8" x1="80.95" y1="58.85" x2="95.23" y2="58.85" xlink:href="#New_Gradient_Swatch_1"/><linearGradient id="New_Gradient_Swatch_1-9" x1="77.37" y1="69.58" x2="97.42" y2="69.58" xlink:href="#New_Gradient_Swatch_1"/><linearGradient id="New_Gradient_Swatch_1-10" x1="73.79" y1="79.49" x2="95.16" y2="79.49" xlink:href="#New_Gradient_Swatch_1"/><linearGradient id="New_Gradient_Swatch_1-11" x1="70.21" y1="89.16" x2="91.58" y2="89.16" xlink:href="#New_Gradient_Swatch_1"/><linearGradient id="New_Gradient_Swatch_1-12" x1="66.63" y1="97.82" x2="82.55" y2="97.82" xlink:href="#New_Gradient_Swatch_1"/><linearGradient id="New_Gradient_Swatch_4-10" x1="58.94" y1="117.77" x2="70.29" y2="117.77" xlink:href="#New_Gradient_Swatch_4"/><linearGradient id="New_Gradient_Swatch_4-11" x1="55.36" y1="128.78" x2="73.98" y2="128.78" xlink:href="#New_Gradient_Swatch_4"/><linearGradient id="New_Gradient_Swatch_4-12" x1="51.78" y1="138.95" x2="73.15" y2="138.95" xlink:href="#New_Gradient_Swatch_4"/></defs><title>icon</title><circle class="cls-1" cx="80" cy="80" r="63"/><path class="cls-2" d="M127.42,25.85a2.48,2.48,0,0,0-3.19,1.47c-.23.63-.47,1.23-.72,1.82l-17-6.3-17.58-6.5c.2-.61.41-1.23.64-1.86a2.48,2.48,0,1,0-4.66-1.72c-3.16,8.54-3.55,16.31-1.18,23.76,1.66,5.25,4.5,9.81,7.49,14.14-11.56,3-23,7.21-29.27,24.12s-.3,27.54,6.52,37.36c-5.1,1.34-10.22,3-14.9,5.85C46.91,122.1,42.14,128.26,39,136.8a2.48,2.48,0,0,0,4.66,1.72c.23-.62.47-1.22.71-1.81l17.58,6.51,17,6.3c-.19.6-.4,1.21-.63,1.84A2.48,2.48,0,0,0,83,153.08c3.16-8.54,3.55-16.31,1.18-23.76-1.66-5.25-4.5-9.81-7.49-14.14,11.56-3,23-7.21,29.27-24.12s.3-27.54-6.52-37.36c5.1-1.34,10.22-3,14.9-5.85C121,43.74,125.73,37.58,128.89,29A2.48,2.48,0,0,0,127.42,25.85Zm-22-.09L122.19,32a31.39,31.39,0,0,1-4.09,6.16l-15.19-5.62L87.16,26.68a31.25,31.25,0,0,1,.91-7.34ZM92,42.79l6.22,2.3,5.67,2.1c-2.45.84-5,1.52-7.56,2.17C94.83,47.18,93.34,45,92,42.79Zm10,44.35L85,80.85l-17.56-6.5A33.47,33.47,0,0,1,71,68l16.5,6.1L103.46,80A33.56,33.56,0,0,1,102,87.14Zm-4.28,9.41-16.3-6L64.58,84.27a36.42,36.42,0,0,1,1.75-7l17.61,6.52,17,6.31A36.25,36.25,0,0,1,97.74,96.55ZM94.27,55a74.65,74.65,0,0,1,6,9.49l-8.06-3-8.61-3.19A76.23,76.23,0,0,1,94.27,55ZM79.7,60.21l11.4,4.22,10.84,4a27.06,27.06,0,0,1,1.61,8.27l-15-5.53L73.09,65.44A26.81,26.81,0,0,1,79.7,60.21Zm-13,39.16,10.07,3.72,9.52,3.53a65.48,65.48,0,0,1-12.7,4.21A65.14,65.14,0,0,1,66.71,99.37Zm4.8,17.11c1.54,2.18,3,4.36,4.35,6.6L70.17,121l-6.25-2.31C66.38,117.82,68.92,117.14,71.51,116.48Zm-11.87,3.89a1.11,1.11,0,0,0,.19.09l9.26,3.43,8.92,3.3a29.49,29.49,0,0,1,2.49,8.6l-13.91-5.15-14.47-5.36A29.32,29.32,0,0,1,59.64,120.37ZM63,140.31l-17.34-6.42a31.47,31.47,0,0,1,4.09-6.17l15.75,5.83,15.2,5.63a31.78,31.78,0,0,1-.91,7.34Zm26.82-35.7-12-4.43L65.33,95.54a26.5,26.5,0,0,1-1-8.05l16,5.94,15.49,5.73A26.48,26.48,0,0,1,89.83,104.61Zm18.4-59.14-8.9-3.29-9.45-3.5a29.36,29.36,0,0,1-2.51-8.61l14.46,5.35,13.9,5.15A29.27,29.27,0,0,1,108.23,45.47Z"/><path class="cls-3" d="M30.3,133.57a2.49,2.49,0,0,1-1.47-3.2c3.16-8.54,7.93-14.69,14.57-18.8,5.82-3.6,12.32-5.23,18.6-6.8,11.92-3,23.18-5.79,29.12-21.86s-.76-25.53-7.87-35.55c-3.75-5.28-7.62-10.75-9.69-17.26-2.37-7.45-2-15.23,1.18-23.77A2.49,2.49,0,1,1,79.4,8.06c-6.15,16.61.68,26.23,7.9,36.42,7.55,10.64,15.34,21.63,8.49,40.16s-19.94,21.79-32.59,25c-12.12,3-23.56,5.89-29.71,22.5A2.49,2.49,0,0,1,30.3,133.57Z"/><path class="cls-4" d="M69.64,148.13a2.49,2.49,0,0,1-1.47-3.2c6.15-16.61-.68-26.23-7.9-36.42-7.55-10.64-15.34-21.63-8.49-40.16S71.72,46.56,84.37,43.4c12.11-3,23.56-5.89,29.71-22.51a2.49,2.49,0,1,1,4.66,1.73c-3.16,8.54-7.93,14.69-14.57,18.81-5.82,3.6-12.32,5.22-18.6,6.79C73.65,51.2,62.39,54,56.45,70.08s.76,25.53,7.87,35.55c3.75,5.28,7.62,10.75,9.69,17.27,2.37,7.44,2,15.22-1.18,23.76A2.49,2.49,0,0,1,69.64,148.13Z"/><path class="cls-5" d="M76.51,9.08A1.55,1.55,0,1,0,75.43,12l19.83,7.34,1.08-2.91Z"/><path class="cls-6" d="M75.06,19.54A1.55,1.55,0,1,0,74,22.45L91.68,29l1.08-2.91Z"/><path class="cls-7" d="M77.88,31.57a1.55,1.55,0,1,0-1.08,2.91l11.3,4.19,1.08-2.92Z"/><path class="cls-8" d="M68.78,50.19A1.55,1.55,0,0,0,67.7,53.1L81,58,82,55.09Z"/><path class="cls-9" d="M59.93,57.9a1.56,1.56,0,0,0-2,.92,1.57,1.57,0,0,0,.92,2l18.52,6.85,1.08-2.92Z"/><path class="cls-10" d="M55,67.08A1.56,1.56,0,1,0,54,70l19.83,7.34,1.08-2.92Z"/><path class="cls-11" d="M51.46,76.75a1.55,1.55,0,0,0-1.08,2.91L70.21,87l1.08-2.91Z"/><path class="cls-12" d="M53.34,88.43a1.57,1.57,0,0,0-2,.92,1.55,1.55,0,0,0,.92,2l14.37,5.32,1.08-2.91Z"/><path class="cls-13" d="M50.76,111.12a1.56,1.56,0,0,0-2,.92,1.57,1.57,0,0,0,.92,2l9.26,3.42L60,114.55Z"/><path class="cls-14" d="M39.36,117.89a1.56,1.56,0,1,0-1.08,2.92l17.08,6.32,1.08-2.92Z"/><path class="cls-15" d="M33,126.54A1.56,1.56,0,0,0,32,129.46l19.83,7.34,1.08-2.92Z"/><path class="cls-16" d="M116.53,25.55a1.57,1.57,0,0,0-.92-2L96.34,16.42l-1.08,2.91,19.27,7.14A1.57,1.57,0,0,0,116.53,25.55Z"/><path class="cls-17" d="M110.82,34.43a1.55,1.55,0,0,0-.92-2L92.76,26.09,91.68,29l17.14,6.35A1.57,1.57,0,0,0,110.82,34.43Z"/><path class="cls-18" d="M100.84,41.73a1.55,1.55,0,0,0-.91-2l-10.75-4L88.1,38.67l10.75,4A1.56,1.56,0,0,0,100.84,41.73Z"/><path class="cls-19" d="M95.13,61.6a1.55,1.55,0,0,0-.92-2L82,55.09,81,58l12.18,4.51A1.55,1.55,0,0,0,95.13,61.6Z"/><path class="cls-20" d="M97.33,73.4a1.57,1.57,0,0,0-.92-2l-18-6.65-1.08,2.92,18,6.65A1.57,1.57,0,0,0,97.33,73.4Z"/><path class="cls-21" d="M95.06,83.55a1.56,1.56,0,0,0-.92-2L74.87,74.42l-1.08,2.92,19.27,7.13A1.55,1.55,0,0,0,95.06,83.55Z"/><path class="cls-22" d="M91.48,93.22a1.55,1.55,0,0,0-.92-2L71.29,84.09,70.21,87l19.27,7.14A1.57,1.57,0,0,0,91.48,93.22Z"/><path class="cls-23" d="M82.45,100.87a1.55,1.55,0,0,0-.92-2L67.71,93.76l-1.08,2.91,13.82,5.12A1.57,1.57,0,0,0,82.45,100.87Z"/><path class="cls-24" d="M70.19,120a1.55,1.55,0,0,0-.92-2L60,114.55l-1.08,2.91,9.25,3.43A1.57,1.57,0,0,0,70.19,120Z"/><path class="cls-25" d="M73.88,132.33a1.55,1.55,0,0,0-.92-2l-16.52-6.12-1.08,2.92,16.53,6.11A1.55,1.55,0,0,0,73.88,132.33Z"/><path class="cls-26" d="M73.05,143a1.56,1.56,0,0,0-.92-2l-19.27-7.13-1.08,2.91,19.27,7.14A1.55,1.55,0,0,0,73.05,143Z"/></svg>