<svg id="Layer_1" data-name="Layer 1" xmlns="http://www.w3.org/2000/svg" xmlns:xlink="http://www.w3.org/1999/xlink" viewBox="0 0 160 160"><defs><style>.cls-1{fill:#efefef;}.cls-2{fill:#ddd;}.cls-3{fill:url(#linear-gradient);}.cls-4{fill:url(#linear-gradient-2);}.cls-5{fill:url(#linear-gradient-3);}.cls-6{fill:url(#linear-gradient-4);}.cls-7{fill:url(#linear-gradient-5);}.cls-8{fill:url(#linear-gradient-6);}.cls-9{fill:url(#linear-gradient-7);}.cls-10{fill:url(#linear-gradient-8);}.cls-11{fill:url(#linear-gradient-9);}.cls-12{fill:url(#linear-gradient-10);}.cls-13{fill:url(#linear-gradient-11);}.cls-14{fill:url(#linear-gradient-12);}</style><linearGradient id="linear-gradient" x1="96.61" y1="229.52" x2="169.45" y2="229.52" gradientTransform="translate(-52.5 -147.31)" gradientUnits="userSpaceOnUse"><stop offset="0" stop-color="#58b9f3"/><stop offset="1" stop-color="#479cd2"/></linearGradient><linearGradient id="linear-gradient-2" x1="114.85" y1="198.41" x2="130.86" y2="198.41" gradientTransform="translate(-52.5 -147.31)" gradientUnits="userSpaceOnUse"><stop offset="0" stop-color="#464ade"/><stop offset="1" stop-color="#3e18d5"/></linearGradient><linearGradient id="linear-gradient-3" x1="105.67" y1="207.51" x2="127.21" y2="207.51" xlink:href="#linear-gradient-2"/><linearGradient id="linear-gradient-4" x1="100.55" y1="217.36" x2="123.46" y2="217.36" xlink:href="#linear-gradient-2"/><linearGradient id="linear-gradient-5" x1="96.83" y1="227.45" x2="119.75" y2="227.45" xlink:href="#linear-gradient-2"/><linearGradient id="linear-gradient-6" x1="98.78" y1="238.59" x2="115.98" y2="238.59" xlink:href="#linear-gradient-2"/><linearGradient id="linear-gradient-7" x1="144.74" y1="164.44" x2="167.04" y2="164.44" xlink:href="#linear-gradient-2"/><linearGradient id="linear-gradient-8" x1="141" y1="174.14" x2="161.08" y2="174.14" xlink:href="#linear-gradient-2"/><linearGradient id="linear-gradient-9" x1="137.26" y1="183" x2="150.67" y2="183" xlink:href="#linear-gradient-2"/><linearGradient id="linear-gradient-10" x1="106.81" y1="264.99" x2="118.66" y2="264.99" xlink:href="#linear-gradient-2"/><linearGradient id="linear-gradient-11" x1="103.07" y1="276.47" x2="122.51" y2="276.47" xlink:href="#linear-gradient-2"/><linearGradient id="linear-gradient-12" x1="99.34" y1="287.09" x2="121.64" y2="287.09" xlink:href="#linear-gradient-2"/></defs><title>icon</title><circle class="cls-1" cx="80" cy="80" r="63"/><path class="cls-2" d="M127.24,17.31a2.6,2.6,0,0,0-3.37,1.46c-.23.65-.49,1.3-.75,1.92L105.37,14.1l-1.13,3,17.52,6.49a33.64,33.64,0,0,1-4.28,6.42l-15.87-5.87-1.14,3L115,32.63a31.1,31.1,0,0,1-7.82,5.12l-9.28-3.44-1.14,3,5.91,2.18c-3.15,1.07-6.46,1.91-9.83,2.75C79.61,45.6,66,49,58.78,68.35s1,30.82,8.86,41.92c2,2.82,4,5.61,5.68,8.5l-6-2.21-1.14,3,9.34,3.44a30.26,30.26,0,0,1,2.6,9l-14.54-5.39-1.13,3,15.87,5.88a32.77,32.77,0,0,1-.95,7.65l-17.52-6.48-1.13,3.05,17.78,6.58c-.2.65-.42,1.27-.68,2h0a2.59,2.59,0,0,0,4.86,1.82c3.31-8.93,3.7-17,1.24-24.83-2.18-6.81-6.2-12.52-10.13-18-3.08-4.34-6.06-8.56-8.11-13.23l10.51,3.89,1.14-3L62.38,90a28.5,28.5,0,0,1-1.07-8.4l16.74,6.2,1.14-3L61.57,78.24a38.78,38.78,0,0,1,1.82-7.33l18.39,6.82,1.14-3L64.59,67.89a33.77,33.77,0,0,1,3.73-6.65l17.23,6.4,1.13-3-16.19-6a28.27,28.27,0,0,1,6.91-5.45l11.88,4.41,1.14-3-9-3.34a87.66,87.66,0,0,1,12.68-3.83c6.56-1.65,13.34-3.34,19.41-7.1,6.94-4.28,11.9-10.71,15.21-19.63A2.57,2.57,0,0,0,127.24,17.31Z"/><path class="cls-3" d="M65.5,149.37A2.59,2.59,0,0,1,64,146h0c6.43-17.35-.71-27.38-8.24-38-7.88-11.1-16-22.58-8.86-41.92S67.7,43.3,80.91,40c12.65-3.18,24.59-6.13,31-23.49a2.6,2.6,0,0,1,3.37-1.46,2.57,2.57,0,0,1,1.49,3.28c-3.31,8.92-8.27,15.35-15.21,19.63-6.07,3.76-12.85,5.45-19.41,7.11C69.71,48.2,58,51.15,51.77,67.89S52.58,94.57,60,105c3.93,5.52,8,11.23,10.12,18,2.47,7.79,2.08,15.9-1.23,24.82A2.7,2.7,0,0,1,65.5,149.37Z"/><path class="cls-4" d="M64.59,47.1a1.61,1.61,0,1,0-1.23,3,.18.18,0,0,0,.12,0l13.83,5.13,1.13-3.05Z"/><path class="cls-5" d="M55.34,55.14a1.62,1.62,0,1,0-1.1,3l19.34,7.17,1.13-3Z"/><path class="cls-6" d="M50.25,64.75a1.6,1.6,0,0,0-2.08,1,1.63,1.63,0,0,0,1,2.08l20.7,7.65,1.14-3Z"/><path class="cls-7" d="M46.52,74.84a1.62,1.62,0,1,0-1.11,3l20.7,7.66,1.14-3Z"/><path class="cls-8" d="M48.46,87a1.59,1.59,0,0,0-2.07,1,1.61,1.61,0,0,0,.94,2.08l15,5.55,1.13-3Z"/><path class="cls-9" d="M114.46,21.37a1.61,1.61,0,0,0-.94-2.08h0L93.4,11.83l-1.14,3.05,20.12,7.46A1.66,1.66,0,0,0,114.46,21.37Z"/><path class="cls-10" d="M108.49,30.65a1.6,1.6,0,0,0-1-2.08L89.6,22,88.47,25l17.91,6.62A1.67,1.67,0,0,0,108.49,30.65Z"/><path class="cls-11" d="M98.07,38.27a1.6,1.6,0,0,0-1-2.08L85.87,32l-1.13,3.05L96,39.24A1.65,1.65,0,0,0,98.07,38.27Z"/><path class="cls-12" d="M66.05,120a1.61,1.61,0,0,0-1-2.08h0l-9.66-3.56-1.14,3,9.67,3.56a1.67,1.67,0,0,0,2.11-1Z"/><path class="cls-13" d="M69.91,132.85a1.61,1.61,0,0,0-.94-2.07h0l-17.26-6.4-1.14,3.05,17.26,6.4A1.6,1.6,0,0,0,69.91,132.85Z"/><path class="cls-14" d="M69,144a1.6,1.6,0,0,0-.94-2.07L48,134.47l-1.14,3.05L67,145A1.62,1.62,0,0,0,69,144Z"/></svg>