<svg id="Layer_1" data-name="Layer 1" xmlns="http://www.w3.org/2000/svg" viewBox="0 0 160 160"><defs><style>.cls-1,.cls-9{fill:#efefef;}.cls-2{fill:#ddd;}.cls-10,.cls-11,.cls-2,.cls-3,.cls-4,.cls-5,.cls-6,.cls-7,.cls-8,.cls-9{stroke:#ddd;stroke-miterlimit:10;}.cls-2,.cls-3,.cls-4,.cls-5,.cls-6,.cls-7,.cls-8,.cls-9{stroke-width:0.94px;}.cls-3{fill:#3e18d5;}.cls-4{fill:#f4f4f4;}.cls-5{fill:#fff;}.cls-10,.cls-6{fill:#e1249a;}.cls-7{fill:#f7f7f7;}.cls-11,.cls-8{fill:#58b9f3;}.cls-10{stroke-width:0.49px;}.cls-11{stroke-width:0.66px;}</style></defs><title>icon</title><circle class="cls-1" cx="80" cy="80" r="63"/><path class="cls-2" d="M117.53,124.53a10.12,10.12,0,0,0-3.62.67,3.93,3.93,0,0,0-.41-.88,8.7,8.7,0,0,0-7.69-5.82,2.43,2.43,0,0,0-2-3.88,2.21,2.21,0,0,0-.37,0,15,15,0,0,0-.42-1.63,5.92,5.92,0,0,0,1.34.16,6,6,0,0,0,5-9.32h.1a6.27,6.27,0,0,0,2.29-12.11,11.22,11.22,0,0,0,4.68-6.29,5.47,5.47,0,0,0,8.77-4.35,5.48,5.48,0,0,0-4-5.27,10.33,10.33,0,0,0,.31-2.51,10.69,10.69,0,0,0-3.22-7.66,13.07,13.07,0,0,0-4.26-17.64,6,6,0,0,0-5.8-10.33,8.21,8.21,0,0,0-4.44-8.09A11.15,11.15,0,1,0,84.34,22.1a3.57,3.57,0,0,0-3,4.67,8.48,8.48,0,0,0-9.42,12.85,8.24,8.24,0,0,0,1,1.28A12.39,12.39,0,0,0,70.88,42a11.92,11.92,0,0,0,7.17,21.83,3.64,3.64,0,0,0-.2,1.5,6.9,6.9,0,0,0-7,10.61A5.46,5.46,0,0,0,70.62,85a6,6,0,0,0-.71,1.35,3.77,3.77,0,0,0-5.22,3.51c0,.13,0,.25,0,.38a7.39,7.39,0,0,0-14.19,2.88c0,.15,0,.29,0,.44a11.42,11.42,0,0,0-4.85,2.92l-.62.16a7.46,7.46,0,0,0-9.85-5.35A7.14,7.14,0,0,0,29.4,87a4.15,4.15,0,0,0,.08-.79,4.69,4.69,0,1,0-6.9,4.12,7.08,7.08,0,0,0-1.09,3.78,7.16,7.16,0,0,0,4.41,6.61,7.15,7.15,0,0,0,2.63,11.07,6.59,6.59,0,0,0-.72.85,5.76,5.76,0,1,0,3.06,8.79,5.79,5.79,0,0,0,1.68.25,6,6,0,0,0,.85-.07,9.71,9.71,0,1,0,19,3.67,14.79,14.79,0,0,0,1.52-.43,12.43,12.43,0,0,0,11.43,7.55,12.22,12.22,0,0,0,5.2-1.16,6.7,6.7,0,0,0,13,0,14.28,14.28,0,0,0,1.6.53,5.83,5.83,0,0,0,5.39,5.73,9.3,9.3,0,0,0-.14,1.5,9,9,0,0,0,16.07,5.67,5.45,5.45,0,0,0,3.44,1.21,5.53,5.53,0,0,0,3.94-1.66,10.18,10.18,0,1,0,3.75-19.65Z"/><circle class="cls-3" cx="71.49" cy="126.9" r="7.49"/><circle class="cls-3" cx="124.38" cy="77.56" r="5.47"/><circle class="cls-4" cx="115.43" cy="69.78" r="10.73"/><circle class="cls-5" cx="81.61" cy="125.9" r="6.71"/><circle class="cls-4" cx="99.86" cy="61.77" r="14.69"/><circle class="cls-6" cx="95.95" cy="82.85" r="14.69"/><ellipse class="cls-4" cx="98.49" cy="36.33" rx="12.1" ry="16.74" transform="translate(-6.36 31.06) rotate(-17.37)"/><circle class="cls-4" cx="87.94" cy="71.32" r="9.73"/><circle class="cls-5" cx="83.55" cy="31.35" r="8.48"/><circle class="cls-3" cx="53.77" cy="107.27" r="14.76"/><circle class="cls-7" cx="82.1" cy="48.36" r="11.93"/><circle class="cls-3" cx="104.68" cy="33.38" r="8.23"/><circle class="cls-7" cx="100.09" cy="18.68" r="11.15"/><circle class="cls-7" cx="111.64" cy="55.52" r="13.09"/><circle class="cls-5" cx="97.77" cy="46.43" r="9.99"/><circle class="cls-6" cx="114.97" cy="39.77" r="6"/><circle class="cls-7" cx="110.25" cy="78.75" r="11.29"/><circle class="cls-7" cx="87.97" cy="71.19" r="7.53"/><circle class="cls-4" cx="73.28" cy="102.25" r="14.76"/><circle class="cls-6" cx="86.01" cy="61.47" r="3.58"/><circle class="cls-7" cx="88.07" cy="84.87" r="6.89"/><circle class="cls-7" cx="81.23" cy="68.55" r="6.9"/><circle class="cls-4" cx="93.62" cy="113.96" r="14.76"/><circle class="cls-5" cx="94.05" cy="64.49" r="3.58"/><circle class="cls-5" cx="78.39" cy="77" r="5.47"/><circle class="cls-7" cx="97.59" cy="55.76" r="3.58"/><circle class="cls-3" cx="114.44" cy="136.75" r="5.52"/><circle class="cls-4" cx="109.88" cy="123.62" r="8.72"/><circle class="cls-6" cx="29.39" cy="82.6" r="4.69"/><circle class="cls-8" cx="42.41" cy="94.77" r="7.49"/><circle class="cls-7" cx="122.13" cy="131.15" r="10.19"/><circle class="cls-7" cx="33.25" cy="90.49" r="7.15"/><circle class="cls-5" cx="36.04" cy="101.64" r="7.15"/><circle class="cls-7" cx="103.98" cy="135.39" r="9.04"/><circle class="cls-7" cx="30.74" cy="114.53" r="5.76"/><circle class="cls-7" cx="48.33" cy="121.7" r="9.71"/><circle class="cls-7" cx="85.25" cy="102.27" r="13.72"/><circle class="cls-7" cx="73.09" cy="86.31" r="3.79"/><circle class="cls-3" cx="80.39" cy="85.04" r="6.29"/><circle class="cls-6" cx="95.74" cy="114.63" r="5.76"/><circle class="cls-6" cx="114.1" cy="94.04" r="6.27"/><circle class="cls-7" cx="104.28" cy="121.42" r="7.61"/><circle class="cls-5" cx="114.45" cy="123.03" r="4.32"/><circle class="cls-5" cx="101.91" cy="94.68" r="9.2"/><circle class="cls-7" cx="109.02" cy="103.63" r="5.99"/><circle class="cls-8" cx="100.74" cy="106.63" r="5.76"/><circle class="cls-9" cx="100.36" cy="112.88" r="3.05"/><circle class="cls-7" cx="58.47" cy="100.97" r="11.45"/><circle class="cls-7" cx="95.51" cy="128.08" r="5.84"/><circle class="cls-6" cx="108.46" cy="113.49" r="2.43"/><circle class="cls-3" cx="68.8" cy="98.65" r="3.61"/><circle class="cls-6" cx="37.15" cy="112.3" r="5.76"/><circle class="cls-5" cx="98.49" cy="72.85" r="7.39"/><circle class="cls-5" cx="62.53" cy="89.58" r="7.39"/><circle class="cls-5" cx="47.33" cy="106.54" r="7.17"/><circle class="cls-6" cx="88.83" cy="38.25" r="6.28"/><circle class="cls-8" cx="101.91" cy="51.26" r="5.47"/><circle class="cls-8" cx="89.35" cy="22.12" r="3.62"/><circle class="cls-7" cx="69.94" cy="116.35" r="12.43"/><circle class="cls-5" cx="67.81" cy="106.77" r="7.05"/><circle class="cls-10" cx="79.43" cy="108.39" r="3.67"/><circle class="cls-6" cx="105.46" cy="67.49" r="2.43"/><circle class="cls-11" cx="66.67" cy="114.63" r="4.92"/><circle class="cls-5" cx="103.05" cy="15.49" r="3.58"/></svg>